Patient4_TMGait_0pt8_01_left_33_EMG.mot
version=1
nRows=23
nColumns=33
inDegrees=no
endheader
time	1LAddLong	2LGlutMax	3LGlutMed	4LIliopsoas	5LSemiMemb	6LBicFemLong	7LRecFem	8LVastMed	9LVastLat	10LGasMed	11LTibAnt	12lTibPost	13LPeroneusLong	14LSol	15LExtDigLong	16LFlexDigLong	17RAddLong	18RGlutMax	19RGlutMed	20RIliopsoas	21RSemiMemb	22RBicFemLong	23RRecFem	24RVastMed	25RVastLat	26RGasMed	27RTibAnt	28RTibPost	29RPeroneusLong	30RSol	31RExtDigLong	32RFlexDigLong
36.742	0.003815	-1.187	0.14893	0.000305	0.066528	-0.25131	0.22903	0.070801	-1.1188	-0.072327	-0.12817	-0.019531	0.29923	-0.64682	-0.40359	0.068512	-0.020142	-0.94803	-0.28976	-0.036621	-0.096588	-0.002899	0.8374	0.066528	-0.024109	-0.018768	0.089417	0.070343	-0.12283	-0.21164	-0.001526	-0.011292
36.743	0.005035	-1.0873	0.13412	0.017548	0.014954	0.068512	0.29236	0.075073	-1.192	-0.044556	-0.0914	-0.019226	0.085602	-0.81375	-0.1828	0.061798	-0.023956	-0.94772	-0.15762	-0.12039	-0.084686	-0.005035	0.95047	0.11612	-0.022278	-0.01709	0.11124	-0.011902	0.001526	0.64072	-0.001984	-0.013275
36.744	0.008392	-0.89081	0.10666	0.03891	-0.043182	0.29648	0.22446	0.059357	-1.0997	-0.021057	0.004272	-0.010223	-0.16953	-1.0024	0.027924	0.061035	-0.029602	-0.94284	-0.18036	-0.11108	-0.09201	-0.02594	0.88272	0.103	-0.040741	-0.019836	0.11444	-0.11871	0.1648	0.87143	-0.004578	-0.011292
36.745	-0.001526	-0.67917	0.018921	0.024109	-0.063019	0.41092	0.071411	0.028839	-1.075	-0.002441	-0.00885	-0.000305	0.26672	-0.58807	0.093231	0.068817	-0.031738	-0.94696	-0.43213	-0.13031	-0.076141	-0.023651	0.62332	0.13504	-0.046387	-0.019989	0.11169	-0.064087	0.33295	0.78644	-0.004578	0.003204
36.746	-0.011597	-0.48401	-0.002136	0.011749	-0.073547	0.31326	0.043945	0.00885	-0.94574	-0.095367	-0.00412	0.002441	0.55756	-0.25681	0.058746	0.059204	-0.037079	-0.97824	-0.67139	-0.11932	-0.066223	-0.031128	0.62408	0.10666	-0.062103	-0.028992	0.073853	0.023193	0.44647	0.20187	-0.003052	-0.000916
36.747	-0.00946	-0.27054	-0.097656	0.000916	-0.083771	0.31616	0.061951	-0.005493	-0.71198	-0.12802	-0.01709	0.011444	0.2095	-0.16937	-0.085754	0.070648	-0.034637	-0.95566	-0.69443	-0.15106	-0.044403	-0.007019	0.71198	0.08255	-0.05188	-0.030823	0.041351	0.019989	-0.1535	-0.17517	-0.004883	-0.003815
36.748	-0.028687	-0.004425	-0.15778	0.00351	-0.082245	0.41687	0.22324	0.009613	-0.65247	-0.23163	-0.047455	0.007782	-0.58319	-0.16983	-0.011139	0.061951	-0.035095	-0.92422	-0.62775	-0.16647	-0.051422	-0.028076	0.81451	0.075226	-0.065765	-0.028381	0.03418	0.080872	-0.44647	-0.079956	-0.00061	0.001526
36.749	-0.027618	0.18372	-0.26108	0.011902	-0.081787	0.38925	0.34027	0.010529	-0.54336	-0.18768	-0.070038	0.022125	0.068054	-0.16449	0.089264	0.079346	0.019073	-0.89127	-0.52109	-0.14755	-0.042877	-0.042419	0.92636	0.037689	-0.06958	-0.034943	0.040283	-0.011292	-0.18234	-0.32028	-0.001373	0.003204
36.75	-0.023956	0.29739	-0.21759	0.025787	-0.087433	0.14725	0.39719	-0.009918	-0.61432	0.089722	-0.058746	0.024872	0.9053	-0.091553	0.021973	0.065155	0.05661	-0.81009	-0.38803	-0.042114	-0.043793	-0.068359	0.9729	0.036926	-0.080566	-0.050659	0.058289	0.000458	-0.086365	-0.50339	0.001678	-0.00412
36.751	-0.016937	0.40909	-0.3125	0.002136	-0.087433	-0.11826	0.47775	-0.023041	-0.59433	0.14862	-0.029144	0.031433	0.23712	0.045013	0.002747	0.070648	0.068817	-0.84396	-0.45593	0.10666	-0.058746	-0.079346	1.1406	0.042114	-0.061646	-0.053101	0.04425	-0.029907	-0.088196	-0.44662	-0.002441	0.000458
36.752	0.007019	0.50568	-0.17181	-0.002289	-0.077667	-0.23743	0.53024	-0.019836	-0.51987	0.033569	-0.03891	0.030823	-0.12985	0.10346	0.040436	0.069885	0.091858	-0.87692	-0.41809	0.12161	-0.05127	-0.051117	1.2509	0.097198	-0.054474	-0.050201	0.033722	-0.030365	0.016327	-0.3569	-0.004883	0.00473
36.753	0.016022	0.62897	-0.23529	0.025635	-0.064392	-0.17502	0.57526	0.006714	-0.47348	-0.13245	-0.039825	0.034332	0.43778	-0.025024	0.4747	0.075378	0.079346	-0.84534	-0.39536	0.14816	-0.023193	-0.053558	1.1575	0.11551	-0.032806	-0.051575	-0.015717	-0.03067	0.12833	-0.21439	-0.007019	0.005035
36.754	0.014038	0.6691	-0.1622	-0.001526	-0.058746	-0.10452	0.61722	0.023193	-0.41779	0.13031	0.062408	0.039215	0.53925	-0.18799	0.075073	0.076752	0.077667	-0.81711	-0.27496	0.20218	-0.027466	-0.064392	0.91538	0.080872	-0.036469	-0.040131	-0.018616	-0.028381	0.32608	-0.19012	-0.006104	0.00061
36.755	0.017395	0.74753	-0.10788	0.010986	-0.047455	-0.35278	0.80826	0.029907	-0.36377	0.17654	0.20859	0.046692	-0.18478	-0.2179	0.28763	0.077515	0.068665	-0.79605	-0.41702	0.17349	-0.016327	-0.096741	0.94315	0.10574	-0.050964	-0.037689	0.019684	-0.032196	0.35767	-0.11581	-0.002899	-0.001678
36.756	0.028687	0.81589	-0.15259	-0.013733	-0.042725	-0.16205	1.0017	0.024719	-0.4509	0.048981	0.15808	0.052948	-0.4631	0.057983	-0.098572	0.068054	0.10101	-0.84549	-0.62714	0.08316	-0.015106	-0.10864	0.92316	-0.000458	-0.046997	-0.032043	0.047913	-0.028381	0.1712	-0.091858	-0.002899	0.001984
36.757	0.009308	0.85083	-0.24338	-0.003052	-0.082092	0.13138	1.1464	0.022888	-0.40649	-0.002747	0.19302	0.050964	-1.2851	0.12543	-0.18326	0.061188	0.098419	-0.83435	-0.6517	-0.00061	-0.027924	-0.1294	1.0394	-0.034332	-0.057983	-0.018768	0.050812	-0.028381	-0.19333	-0.20767	0.001984	0.000305
36.758	0.01297	0.8786	-0.22446	0.011139	-0.15564	0.22751	1.2553	0.013275	-0.3305	-0.039978	0.10468	0.046539	-0.74478	0.23346	-0.11948	0.037842	0.093994	-0.80963	-0.672	-0.020447	-0.013733	-0.12466	1.114	-0.059967	-0.089417	-0.005341	0.063477	-0.025024	-0.50003	-0.35309	-0.005188	0.010986
36.759	-0.020752	0.86243	-0.12711	0.046844	-0.24063	0.41641	1.4651	0.028229	-0.32196	-0.39597	-0.0737	0.042572	0.75836	0.22644	-0.17364	0.046387	0.12924	-0.74097	-0.34927	0.017548	-0.013123	-0.11612	1.0835	-0.092621	-0.099335	-0.013123	0.078888	-0.026855	-0.39261	-0.29587	-0.004425	-0.000916
36.76	-0.017548	0.72678	-0.038452	0.022736	-0.26001	0.39398	1.7162	0.003662	-0.32227	-0.39825	-0.16007	0.051727	-0.045776	0.19257	-0.35034	0.018158	0.121	-0.83145	-0.37277	0.041962	-0.014191	-0.083466	1.2479	-0.045929	-0.10132	-0.010681	0.15335	-0.021362	-0.32089	-0.20203	-0.00412	-0.008698
36.761	-0.004578	0.62729	0.042725	0.021667	-0.20599	0.18799	1.9859	0.030518	-0.35996	-0.2092	-0.025482	0.048065	-0.50873	0.18448	-0.39108	0.036011	0.095673	-0.74234	-0.84213	-0.032806	-0.001831	-0.038757	1.2473	0.010071	-0.077362	-0.022278	0.23499	-0.014191	-0.27939	-0.18967	-0.005035	-0.018921
36.762	0.006256	0.62805	0.015717	0.019379	-0.098419	0.16937	1.9897	0.035706	-0.22583	-0.03479	0.046387	0.046692	-0.27481	0.049438	-0.38986	0.026855	0.053101	-0.66376	-0.94711	-0.11719	0.002899	-0.061035	1.1484	0.023956	-0.054474	-0.019836	0.16449	0.001984	-0.35828	-0.1947	-0.004425	-0.016022
36.763	0.019226	0.68802	0.20783	0.027924	0.067902	-0.23666	1.8764	0.029297	-0.082245	-0.00061	0.17929	0.06546	-0.18982	0.13855	-0.081329	0.033417	0.027924	-0.56595	-0.96619	-0.1976	0.000458	-0.062714	1.1649	0.028839	-0.034637	-0.015259	0.25955	-0.003204	-0.30228	-0.16388	-0.002899	-0.016632
36.764	0.008545	0.57785	0.11017	0.033417	0.005188	-0.087585	1.6243	0.011749	0.0737	0.034943	0.17303	0.068054	0.28153	-0.072937	0.057068	-0.002594	0.015869	-0.53314	-1.2534	-0.087585	0.009613	-0.038757	1.0892	0.028076	-0.031281	-0.001984	0.45212	-0.15945	-0.096283	-0.029602	-0.00412	-0.01297
